<mxfile host="www.draw.io" modified="2020-03-09T15:25:40.209Z" agent="Mozilla/5.0 (Windows NT 10.0; Win64; x64) AppleWebKit/537.36 (KHTML, like Gecko) Chrome/80.0.3987.132 Safari/537.36" etag="k33v7mQ7whGwV_r3Hc6p" version="12.8.1" type="github">
  <diagram id="cxJui8YIb2qXLyrM7N-O" name="Page-1">
    <mxGraphModel dx="2379" dy="689" grid="1" gridSize="10" guides="1" tooltips="1" connect="1" arrows="1" fold="1" page="1" pageScale="1" pageWidth="827" pageHeight="1169" math="0" shadow="0">
      <root>
        <mxCell id="0" />
        <mxCell id="1" parent="0" />
        <mxCell id="h7xeCGE2rYM3C8ICNuwG-74" value="" style="edgeStyle=orthogonalEdgeStyle;rounded=0;orthogonalLoop=1;jettySize=auto;html=1;fontFamily=Times New Roman;fontSize=24;" parent="1" source="h7xeCGE2rYM3C8ICNuwG-2" target="h7xeCGE2rYM3C8ICNuwG-73" edge="1">
          <mxGeometry relative="1" as="geometry" />
        </mxCell>
        <mxCell id="h7xeCGE2rYM3C8ICNuwG-2" value="" style="shape=cube;whiteSpace=wrap;html=1;boundedLbl=1;backgroundOutline=1;darkOpacity=0.05;darkOpacity2=0.1;rotation=90;size=6;fontFamily=Times New Roman;fontSize=24;" parent="1" vertex="1">
          <mxGeometry x="-20" y="119.5" width="80" height="80" as="geometry" />
        </mxCell>
        <mxCell id="h7xeCGE2rYM3C8ICNuwG-28" value="" style="edgeStyle=orthogonalEdgeStyle;rounded=0;orthogonalLoop=1;jettySize=auto;html=1;entryX=-0.021;entryY=0.506;entryDx=0;entryDy=0;entryPerimeter=0;fontFamily=Times New Roman;fontSize=24;" parent="1" source="h7xeCGE2rYM3C8ICNuwG-4" target="h7xeCGE2rYM3C8ICNuwG-29" edge="1">
          <mxGeometry relative="1" as="geometry">
            <mxPoint x="1140" y="167" as="targetPoint" />
          </mxGeometry>
        </mxCell>
        <mxCell id="h7xeCGE2rYM3C8ICNuwG-4" value="" style="verticalLabelPosition=bottom;verticalAlign=top;html=1;shape=mxgraph.basic.three_corner_round_rect;dx=6;fontFamily=Times New Roman;fontSize=24;" parent="1" vertex="1">
          <mxGeometry x="990" y="137" width="70" height="60" as="geometry" />
        </mxCell>
        <mxCell id="h7xeCGE2rYM3C8ICNuwG-10" value="" style="verticalLabelPosition=bottom;verticalAlign=top;html=1;shape=mxgraph.basic.three_corner_round_rect;dx=6;fontFamily=Times New Roman;fontSize=24;" parent="1" vertex="1">
          <mxGeometry x="180" y="130" width="70" height="60" as="geometry" />
        </mxCell>
        <mxCell id="h7xeCGE2rYM3C8ICNuwG-11" value="" style="verticalLabelPosition=bottom;verticalAlign=top;html=1;shape=mxgraph.basic.three_corner_round_rect;dx=6;fontFamily=Times New Roman;fontSize=24;" parent="1" vertex="1">
          <mxGeometry x="250" y="130" width="70" height="60" as="geometry" />
        </mxCell>
        <mxCell id="h7xeCGE2rYM3C8ICNuwG-14" value="" style="edgeStyle=orthogonalEdgeStyle;rounded=0;orthogonalLoop=1;jettySize=auto;html=1;fontFamily=Times New Roman;fontSize=24;" parent="1" source="h7xeCGE2rYM3C8ICNuwG-12" target="h7xeCGE2rYM3C8ICNuwG-13" edge="1">
          <mxGeometry relative="1" as="geometry" />
        </mxCell>
        <mxCell id="h7xeCGE2rYM3C8ICNuwG-12" value="" style="verticalLabelPosition=bottom;verticalAlign=top;html=1;shape=mxgraph.basic.three_corner_round_rect;dx=6;fontFamily=Times New Roman;fontSize=24;" parent="1" vertex="1">
          <mxGeometry x="320" y="130" width="70" height="60" as="geometry" />
        </mxCell>
        <mxCell id="h7xeCGE2rYM3C8ICNuwG-16" value="" style="edgeStyle=orthogonalEdgeStyle;rounded=0;orthogonalLoop=1;jettySize=auto;html=1;fontFamily=Times New Roman;fontSize=24;" parent="1" source="h7xeCGE2rYM3C8ICNuwG-13" target="h7xeCGE2rYM3C8ICNuwG-15" edge="1">
          <mxGeometry relative="1" as="geometry" />
        </mxCell>
        <mxCell id="h7xeCGE2rYM3C8ICNuwG-13" value="" style="verticalLabelPosition=bottom;verticalAlign=top;html=1;shape=mxgraph.basic.three_corner_round_rect;dx=6;fontFamily=Times New Roman;fontSize=24;" parent="1" vertex="1">
          <mxGeometry x="430" y="130" width="70" height="60" as="geometry" />
        </mxCell>
        <mxCell id="h7xeCGE2rYM3C8ICNuwG-18" value="" style="edgeStyle=orthogonalEdgeStyle;rounded=0;orthogonalLoop=1;jettySize=auto;html=1;fontFamily=Times New Roman;fontSize=24;" parent="1" source="h7xeCGE2rYM3C8ICNuwG-15" target="h7xeCGE2rYM3C8ICNuwG-17" edge="1">
          <mxGeometry relative="1" as="geometry" />
        </mxCell>
        <mxCell id="h7xeCGE2rYM3C8ICNuwG-15" value="" style="verticalLabelPosition=bottom;verticalAlign=top;html=1;shape=mxgraph.basic.three_corner_round_rect;dx=6;fontFamily=Times New Roman;fontSize=24;" parent="1" vertex="1">
          <mxGeometry x="540" y="130" width="70" height="60" as="geometry" />
        </mxCell>
        <mxCell id="h7xeCGE2rYM3C8ICNuwG-17" value="" style="verticalLabelPosition=bottom;verticalAlign=top;html=1;shape=mxgraph.basic.three_corner_round_rect;dx=6;fontFamily=Times New Roman;fontSize=24;" parent="1" vertex="1">
          <mxGeometry x="652" y="130" width="70" height="60" as="geometry" />
        </mxCell>
        <mxCell id="h7xeCGE2rYM3C8ICNuwG-19" value="" style="verticalLabelPosition=bottom;verticalAlign=top;html=1;shape=mxgraph.basic.three_corner_round_rect;dx=6;fontFamily=Times New Roman;fontSize=24;" parent="1" vertex="1">
          <mxGeometry x="659" y="137" width="70" height="60" as="geometry" />
        </mxCell>
        <mxCell id="h7xeCGE2rYM3C8ICNuwG-20" value="" style="verticalLabelPosition=bottom;verticalAlign=top;html=1;shape=mxgraph.basic.three_corner_round_rect;dx=6;fontFamily=Times New Roman;fontSize=24;" parent="1" vertex="1">
          <mxGeometry x="665" y="144" width="70" height="60" as="geometry" />
        </mxCell>
        <mxCell id="h7xeCGE2rYM3C8ICNuwG-21" value="" style="verticalLabelPosition=bottom;verticalAlign=top;html=1;shape=mxgraph.basic.three_corner_round_rect;dx=6;fontFamily=Times New Roman;fontSize=24;" parent="1" vertex="1">
          <mxGeometry x="665" y="144" width="70" height="60" as="geometry" />
        </mxCell>
        <mxCell id="h7xeCGE2rYM3C8ICNuwG-22" value="" style="verticalLabelPosition=bottom;verticalAlign=top;html=1;shape=mxgraph.basic.three_corner_round_rect;dx=6;fontFamily=Times New Roman;fontSize=24;" parent="1" vertex="1">
          <mxGeometry x="672" y="151" width="70" height="60" as="geometry" />
        </mxCell>
        <mxCell id="h7xeCGE2rYM3C8ICNuwG-26" value="" style="edgeStyle=orthogonalEdgeStyle;rounded=0;orthogonalLoop=1;jettySize=auto;html=1;exitX=1.002;exitY=0.155;exitDx=0;exitDy=0;exitPerimeter=0;fontFamily=Times New Roman;fontSize=24;" parent="1" source="h7xeCGE2rYM3C8ICNuwG-23" target="h7xeCGE2rYM3C8ICNuwG-24" edge="1">
          <mxGeometry relative="1" as="geometry" />
        </mxCell>
        <mxCell id="h7xeCGE2rYM3C8ICNuwG-23" value="" style="verticalLabelPosition=bottom;verticalAlign=top;html=1;shape=mxgraph.basic.three_corner_round_rect;dx=6;fontFamily=Times New Roman;fontSize=24;" parent="1" vertex="1">
          <mxGeometry x="678" y="158" width="70" height="60" as="geometry" />
        </mxCell>
        <mxCell id="h7xeCGE2rYM3C8ICNuwG-24" value="" style="verticalLabelPosition=bottom;verticalAlign=top;html=1;shape=mxgraph.basic.three_corner_round_rect;dx=6;fontFamily=Times New Roman;fontSize=24;" parent="1" vertex="1">
          <mxGeometry x="920" y="137" width="70" height="60" as="geometry" />
        </mxCell>
        <mxCell id="h7xeCGE2rYM3C8ICNuwG-29" value="y1" style="shape=cube;whiteSpace=wrap;html=1;boundedLbl=1;backgroundOutline=1;darkOpacity=0.05;darkOpacity2=0.1;fontFamily=Times New Roman;fontSize=24;" parent="1" vertex="1">
          <mxGeometry x="1160" y="135.5" width="120" height="63" as="geometry" />
        </mxCell>
        <mxCell id="h7xeCGE2rYM3C8ICNuwG-42" value="" style="edgeStyle=orthogonalEdgeStyle;rounded=0;orthogonalLoop=1;jettySize=auto;html=1;fontFamily=Times New Roman;fontSize=24;" parent="1" source="h7xeCGE2rYM3C8ICNuwG-30" edge="1">
          <mxGeometry relative="1" as="geometry">
            <mxPoint x="695.5" y="280" as="targetPoint" />
          </mxGeometry>
        </mxCell>
        <mxCell id="h7xeCGE2rYM3C8ICNuwG-30" value="" style="verticalLabelPosition=bottom;verticalAlign=top;html=1;shape=mxgraph.basic.three_corner_round_rect;dx=6;fontFamily=Times New Roman;fontSize=24;" parent="1" vertex="1">
          <mxGeometry x="602.5" y="250" width="70" height="60" as="geometry" />
        </mxCell>
        <mxCell id="h7xeCGE2rYM3C8ICNuwG-31" value="" style="verticalLabelPosition=bottom;verticalAlign=top;html=1;shape=mxgraph.basic.three_corner_round_rect;dx=6;fontFamily=Times New Roman;fontSize=24;" parent="1" vertex="1">
          <mxGeometry x="532.5" y="250" width="70" height="60" as="geometry" />
        </mxCell>
        <mxCell id="h7xeCGE2rYM3C8ICNuwG-34" value="" style="verticalLabelPosition=bottom;verticalAlign=top;html=1;shape=mxgraph.basic.three_corner_round_rect;dx=6;fontFamily=Times New Roman;fontSize=24;" parent="1" vertex="1">
          <mxGeometry x="785.5" y="250" width="70" height="60" as="geometry" />
        </mxCell>
        <mxCell id="h7xeCGE2rYM3C8ICNuwG-35" value="" style="verticalLabelPosition=bottom;verticalAlign=top;html=1;shape=mxgraph.basic.three_corner_round_rect;dx=6;fontFamily=Times New Roman;fontSize=24;" parent="1" vertex="1">
          <mxGeometry x="792.5" y="257" width="70" height="60" as="geometry" />
        </mxCell>
        <mxCell id="h7xeCGE2rYM3C8ICNuwG-36" value="" style="verticalLabelPosition=bottom;verticalAlign=top;html=1;shape=mxgraph.basic.three_corner_round_rect;dx=6;fontFamily=Times New Roman;fontSize=24;" parent="1" vertex="1">
          <mxGeometry x="798.5" y="264" width="70" height="60" as="geometry" />
        </mxCell>
        <mxCell id="h7xeCGE2rYM3C8ICNuwG-37" value="" style="verticalLabelPosition=bottom;verticalAlign=top;html=1;shape=mxgraph.basic.three_corner_round_rect;dx=6;fontFamily=Times New Roman;fontSize=24;" parent="1" vertex="1">
          <mxGeometry x="798.5" y="264" width="70" height="60" as="geometry" />
        </mxCell>
        <mxCell id="h7xeCGE2rYM3C8ICNuwG-38" value="" style="verticalLabelPosition=bottom;verticalAlign=top;html=1;shape=mxgraph.basic.three_corner_round_rect;dx=6;fontFamily=Times New Roman;fontSize=24;" parent="1" vertex="1">
          <mxGeometry x="805.5" y="271" width="70" height="60" as="geometry" />
        </mxCell>
        <mxCell id="h7xeCGE2rYM3C8ICNuwG-46" value="" style="edgeStyle=orthogonalEdgeStyle;rounded=0;orthogonalLoop=1;jettySize=auto;html=1;exitX=0.946;exitY=0.03;exitDx=0;exitDy=0;exitPerimeter=0;fontFamily=Times New Roman;fontSize=24;" parent="1" source="h7xeCGE2rYM3C8ICNuwG-39" target="h7xeCGE2rYM3C8ICNuwG-44" edge="1">
          <mxGeometry relative="1" as="geometry" />
        </mxCell>
        <mxCell id="h7xeCGE2rYM3C8ICNuwG-39" value="" style="verticalLabelPosition=bottom;verticalAlign=top;html=1;shape=mxgraph.basic.three_corner_round_rect;dx=6;fontFamily=Times New Roman;fontSize=24;" parent="1" vertex="1">
          <mxGeometry x="811.5" y="278" width="70" height="60" as="geometry" />
        </mxCell>
        <mxCell id="h7xeCGE2rYM3C8ICNuwG-45" value="" style="edgeStyle=orthogonalEdgeStyle;rounded=0;orthogonalLoop=1;jettySize=auto;html=1;fontFamily=Times New Roman;fontSize=24;" parent="1" edge="1">
          <mxGeometry relative="1" as="geometry">
            <mxPoint x="747" y="297" as="sourcePoint" />
            <mxPoint x="785.5" y="297" as="targetPoint" />
          </mxGeometry>
        </mxCell>
        <mxCell id="h7xeCGE2rYM3C8ICNuwG-40" value="" style="shape=trapezoid;perimeter=trapezoidPerimeter;whiteSpace=wrap;html=1;rotation=90;fontFamily=Times New Roman;fontSize=24;" parent="1" vertex="1">
          <mxGeometry x="675" y="276.5" width="92.5" height="49" as="geometry" />
        </mxCell>
        <mxCell id="h7xeCGE2rYM3C8ICNuwG-49" value="" style="edgeStyle=orthogonalEdgeStyle;rounded=0;orthogonalLoop=1;jettySize=auto;html=1;entryX=0;entryY=0;entryDx=0;entryDy=30;entryPerimeter=0;fontFamily=Times New Roman;fontSize=24;" parent="1" source="h7xeCGE2rYM3C8ICNuwG-43" target="h7xeCGE2rYM3C8ICNuwG-47" edge="1">
          <mxGeometry relative="1" as="geometry">
            <mxPoint x="1140" y="280" as="targetPoint" />
          </mxGeometry>
        </mxCell>
        <mxCell id="h7xeCGE2rYM3C8ICNuwG-43" value="" style="verticalLabelPosition=bottom;verticalAlign=top;html=1;shape=mxgraph.basic.three_corner_round_rect;dx=6;fontFamily=Times New Roman;fontSize=24;" parent="1" vertex="1">
          <mxGeometry x="990" y="250" width="70" height="60" as="geometry" />
        </mxCell>
        <mxCell id="h7xeCGE2rYM3C8ICNuwG-44" value="" style="verticalLabelPosition=bottom;verticalAlign=top;html=1;shape=mxgraph.basic.three_corner_round_rect;dx=6;fontFamily=Times New Roman;fontSize=24;" parent="1" vertex="1">
          <mxGeometry x="920" y="250" width="70" height="60" as="geometry" />
        </mxCell>
        <mxCell id="h7xeCGE2rYM3C8ICNuwG-47" value="y2" style="shape=cube;whiteSpace=wrap;html=1;boundedLbl=1;backgroundOutline=1;darkOpacity=0.05;darkOpacity2=0.1;fontFamily=Times New Roman;fontSize=24;" parent="1" vertex="1">
          <mxGeometry x="1160" y="250" width="120" height="70" as="geometry" />
        </mxCell>
        <mxCell id="h7xeCGE2rYM3C8ICNuwG-50" value="" style="endArrow=classic;html=1;entryX=0;entryY=0.5;entryDx=0;entryDy=0;entryPerimeter=0;fontFamily=Times New Roman;fontSize=24;" parent="1" target="h7xeCGE2rYM3C8ICNuwG-31" edge="1">
          <mxGeometry width="50" height="50" relative="1" as="geometry">
            <mxPoint x="820" y="170" as="sourcePoint" />
            <mxPoint x="40" y="441" as="targetPoint" />
            <Array as="points">
              <mxPoint x="820" y="220" />
              <mxPoint x="650" y="220" />
              <mxPoint x="480" y="220" />
              <mxPoint x="480" y="280" />
            </Array>
          </mxGeometry>
        </mxCell>
        <mxCell id="h7xeCGE2rYM3C8ICNuwG-51" value="" style="endArrow=classic;html=1;entryX=0.713;entryY=0.998;entryDx=0;entryDy=0;entryPerimeter=0;fontFamily=Times New Roman;fontSize=24;" parent="1" target="h7xeCGE2rYM3C8ICNuwG-40" edge="1">
          <mxGeometry width="50" height="50" relative="1" as="geometry">
            <mxPoint x="520" y="160" as="sourcePoint" />
            <mxPoint x="320" y="350" as="targetPoint" />
            <Array as="points">
              <mxPoint x="520" y="200" />
              <mxPoint x="460" y="200" />
              <mxPoint x="460" y="320" />
            </Array>
          </mxGeometry>
        </mxCell>
        <mxCell id="h7xeCGE2rYM3C8ICNuwG-52" value="" style="edgeStyle=orthogonalEdgeStyle;rounded=0;orthogonalLoop=1;jettySize=auto;html=1;fontFamily=Times New Roman;fontSize=24;" parent="1" source="h7xeCGE2rYM3C8ICNuwG-53" edge="1">
          <mxGeometry relative="1" as="geometry">
            <mxPoint x="695.5" y="390" as="targetPoint" />
          </mxGeometry>
        </mxCell>
        <mxCell id="h7xeCGE2rYM3C8ICNuwG-53" value="" style="verticalLabelPosition=bottom;verticalAlign=top;html=1;shape=mxgraph.basic.three_corner_round_rect;dx=6;fontFamily=Times New Roman;fontSize=24;" parent="1" vertex="1">
          <mxGeometry x="602.5" y="360" width="70" height="60" as="geometry" />
        </mxCell>
        <mxCell id="h7xeCGE2rYM3C8ICNuwG-54" value="" style="verticalLabelPosition=bottom;verticalAlign=top;html=1;shape=mxgraph.basic.three_corner_round_rect;dx=6;fontFamily=Times New Roman;fontSize=24;" parent="1" vertex="1">
          <mxGeometry x="532.5" y="360" width="70" height="60" as="geometry" />
        </mxCell>
        <mxCell id="h7xeCGE2rYM3C8ICNuwG-55" value="" style="verticalLabelPosition=bottom;verticalAlign=top;html=1;shape=mxgraph.basic.three_corner_round_rect;dx=6;fontFamily=Times New Roman;fontSize=24;" parent="1" vertex="1">
          <mxGeometry x="785.5" y="360" width="70" height="60" as="geometry" />
        </mxCell>
        <mxCell id="h7xeCGE2rYM3C8ICNuwG-56" value="" style="verticalLabelPosition=bottom;verticalAlign=top;html=1;shape=mxgraph.basic.three_corner_round_rect;dx=6;fontFamily=Times New Roman;fontSize=24;" parent="1" vertex="1">
          <mxGeometry x="792.5" y="367" width="70" height="60" as="geometry" />
        </mxCell>
        <mxCell id="h7xeCGE2rYM3C8ICNuwG-57" value="" style="verticalLabelPosition=bottom;verticalAlign=top;html=1;shape=mxgraph.basic.three_corner_round_rect;dx=6;fontFamily=Times New Roman;fontSize=24;" parent="1" vertex="1">
          <mxGeometry x="798.5" y="374" width="70" height="60" as="geometry" />
        </mxCell>
        <mxCell id="h7xeCGE2rYM3C8ICNuwG-58" value="" style="verticalLabelPosition=bottom;verticalAlign=top;html=1;shape=mxgraph.basic.three_corner_round_rect;dx=6;fontFamily=Times New Roman;fontSize=24;" parent="1" vertex="1">
          <mxGeometry x="798.5" y="374" width="70" height="60" as="geometry" />
        </mxCell>
        <mxCell id="h7xeCGE2rYM3C8ICNuwG-59" value="" style="verticalLabelPosition=bottom;verticalAlign=top;html=1;shape=mxgraph.basic.three_corner_round_rect;dx=6;fontFamily=Times New Roman;fontSize=24;" parent="1" vertex="1">
          <mxGeometry x="805.5" y="381" width="70" height="60" as="geometry" />
        </mxCell>
        <mxCell id="h7xeCGE2rYM3C8ICNuwG-60" value="" style="edgeStyle=orthogonalEdgeStyle;rounded=0;orthogonalLoop=1;jettySize=auto;html=1;exitX=0.946;exitY=0.03;exitDx=0;exitDy=0;exitPerimeter=0;fontFamily=Times New Roman;fontSize=24;" parent="1" source="h7xeCGE2rYM3C8ICNuwG-61" target="h7xeCGE2rYM3C8ICNuwG-66" edge="1">
          <mxGeometry relative="1" as="geometry" />
        </mxCell>
        <mxCell id="h7xeCGE2rYM3C8ICNuwG-61" value="" style="verticalLabelPosition=bottom;verticalAlign=top;html=1;shape=mxgraph.basic.three_corner_round_rect;dx=6;fontFamily=Times New Roman;fontSize=24;" parent="1" vertex="1">
          <mxGeometry x="811.5" y="388" width="70" height="60" as="geometry" />
        </mxCell>
        <mxCell id="h7xeCGE2rYM3C8ICNuwG-62" value="" style="edgeStyle=orthogonalEdgeStyle;rounded=0;orthogonalLoop=1;jettySize=auto;html=1;fontFamily=Times New Roman;fontSize=24;" parent="1" edge="1">
          <mxGeometry relative="1" as="geometry">
            <mxPoint x="747" y="407" as="sourcePoint" />
            <mxPoint x="785.5" y="407" as="targetPoint" />
          </mxGeometry>
        </mxCell>
        <mxCell id="h7xeCGE2rYM3C8ICNuwG-63" value="" style="shape=trapezoid;perimeter=trapezoidPerimeter;whiteSpace=wrap;html=1;rotation=90;fontFamily=Times New Roman;fontSize=24;" parent="1" vertex="1">
          <mxGeometry x="675" y="386.5" width="92.5" height="49" as="geometry" />
        </mxCell>
        <mxCell id="h7xeCGE2rYM3C8ICNuwG-64" value="" style="edgeStyle=orthogonalEdgeStyle;rounded=0;orthogonalLoop=1;jettySize=auto;html=1;entryX=0;entryY=0;entryDx=0;entryDy=30;entryPerimeter=0;fontFamily=Times New Roman;fontSize=24;" parent="1" source="h7xeCGE2rYM3C8ICNuwG-65" target="h7xeCGE2rYM3C8ICNuwG-67" edge="1">
          <mxGeometry relative="1" as="geometry">
            <mxPoint x="1140" y="390" as="targetPoint" />
          </mxGeometry>
        </mxCell>
        <mxCell id="h7xeCGE2rYM3C8ICNuwG-65" value="" style="verticalLabelPosition=bottom;verticalAlign=top;html=1;shape=mxgraph.basic.three_corner_round_rect;dx=6;fontFamily=Times New Roman;fontSize=24;" parent="1" vertex="1">
          <mxGeometry x="990" y="360" width="70" height="60" as="geometry" />
        </mxCell>
        <mxCell id="h7xeCGE2rYM3C8ICNuwG-66" value="" style="verticalLabelPosition=bottom;verticalAlign=top;html=1;shape=mxgraph.basic.three_corner_round_rect;dx=6;fontFamily=Times New Roman;fontSize=24;" parent="1" vertex="1">
          <mxGeometry x="920" y="360" width="70" height="60" as="geometry" />
        </mxCell>
        <mxCell id="h7xeCGE2rYM3C8ICNuwG-67" value="y3" style="shape=cube;whiteSpace=wrap;html=1;boundedLbl=1;backgroundOutline=1;darkOpacity=0.05;darkOpacity2=0.1;fontFamily=Times New Roman;fontSize=24;" parent="1" vertex="1">
          <mxGeometry x="1160" y="360" width="120" height="80" as="geometry" />
        </mxCell>
        <mxCell id="h7xeCGE2rYM3C8ICNuwG-68" value="" style="endArrow=classic;html=1;entryX=0.657;entryY=1.056;entryDx=0;entryDy=0;entryPerimeter=0;fontFamily=Times New Roman;fontSize=24;" parent="1" target="h7xeCGE2rYM3C8ICNuwG-63" edge="1">
          <mxGeometry width="50" height="50" relative="1" as="geometry">
            <mxPoint x="410" y="160" as="sourcePoint" />
            <mxPoint x="220" y="481" as="targetPoint" />
            <Array as="points">
              <mxPoint x="410" y="426" />
            </Array>
          </mxGeometry>
        </mxCell>
        <mxCell id="h7xeCGE2rYM3C8ICNuwG-69" value="" style="endArrow=classic;html=1;entryX=0.018;entryY=0.561;entryDx=0;entryDy=0;entryPerimeter=0;fontFamily=Times New Roman;fontSize=24;" parent="1" target="h7xeCGE2rYM3C8ICNuwG-54" edge="1">
          <mxGeometry width="50" height="50" relative="1" as="geometry">
            <mxPoint x="900" y="280" as="sourcePoint" />
            <mxPoint x="504.5" y="458" as="targetPoint" />
            <Array as="points">
              <mxPoint x="900" y="340" />
              <mxPoint x="890" y="350" />
              <mxPoint x="490" y="350" />
              <mxPoint x="490" y="394" />
            </Array>
          </mxGeometry>
        </mxCell>
        <mxCell id="h7xeCGE2rYM3C8ICNuwG-73" value="" style="verticalLabelPosition=bottom;verticalAlign=top;html=1;shape=mxgraph.basic.three_corner_round_rect;dx=6;fontFamily=Times New Roman;fontSize=24;" parent="1" vertex="1">
          <mxGeometry x="110" y="130" width="70" height="60" as="geometry" />
        </mxCell>
        <mxCell id="h7xeCGE2rYM3C8ICNuwG-75" value="res2" style="text;html=1;strokeColor=none;fillColor=none;align=center;verticalAlign=middle;whiteSpace=wrap;rounded=0;fontFamily=Times New Roman;fontSize=24;" parent="1" vertex="1">
          <mxGeometry x="265" y="151" width="40" height="20" as="geometry" />
        </mxCell>
        <mxCell id="h7xeCGE2rYM3C8ICNuwG-76" value="res1" style="text;html=1;strokeColor=none;fillColor=none;align=center;verticalAlign=middle;whiteSpace=wrap;rounded=0;fontFamily=Times New Roman;fontSize=24;" parent="1" vertex="1">
          <mxGeometry x="195" y="151" width="40" height="20" as="geometry" />
        </mxCell>
        <mxCell id="h7xeCGE2rYM3C8ICNuwG-77" value="res8" style="text;html=1;strokeColor=none;fillColor=none;align=center;verticalAlign=middle;whiteSpace=wrap;rounded=0;fontFamily=Times New Roman;fontSize=24;" parent="1" vertex="1">
          <mxGeometry x="335" y="151" width="40" height="20" as="geometry" />
        </mxCell>
        <mxCell id="h7xeCGE2rYM3C8ICNuwG-78" value="res4" style="text;html=1;strokeColor=none;fillColor=none;align=center;verticalAlign=middle;whiteSpace=wrap;rounded=0;fontFamily=Times New Roman;fontSize=24;" parent="1" vertex="1">
          <mxGeometry x="555" y="150" width="40" height="20" as="geometry" />
        </mxCell>
        <mxCell id="h7xeCGE2rYM3C8ICNuwG-79" value="res8" style="text;html=1;strokeColor=none;fillColor=none;align=center;verticalAlign=middle;whiteSpace=wrap;rounded=0;fontFamily=Times New Roman;fontSize=24;" parent="1" vertex="1">
          <mxGeometry x="445" y="151" width="40" height="20" as="geometry" />
        </mxCell>
        <mxCell id="h7xeCGE2rYM3C8ICNuwG-80" value="DBL" style="text;html=1;strokeColor=none;fillColor=none;align=center;verticalAlign=middle;whiteSpace=wrap;rounded=0;fontFamily=Times New Roman;fontSize=24;" parent="1" vertex="1">
          <mxGeometry x="125" y="151" width="40" height="20" as="geometry" />
        </mxCell>
        <mxCell id="h7xeCGE2rYM3C8ICNuwG-81" value="DBL" style="text;html=1;strokeColor=none;fillColor=none;align=center;verticalAlign=middle;whiteSpace=wrap;rounded=0;fontFamily=Times New Roman;fontSize=24;" parent="1" vertex="1">
          <mxGeometry x="693" y="178.5" width="40" height="20" as="geometry" />
        </mxCell>
        <mxCell id="h7xeCGE2rYM3C8ICNuwG-82" value="DBL" style="text;html=1;strokeColor=none;fillColor=none;align=center;verticalAlign=middle;whiteSpace=wrap;rounded=0;fontFamily=Times New Roman;fontSize=24;" parent="1" vertex="1">
          <mxGeometry x="547.5" y="271" width="40" height="20" as="geometry" />
        </mxCell>
        <mxCell id="h7xeCGE2rYM3C8ICNuwG-83" value="DBL" style="text;html=1;strokeColor=none;fillColor=none;align=center;verticalAlign=middle;whiteSpace=wrap;rounded=0;fontFamily=Times New Roman;fontSize=24;" parent="1" vertex="1">
          <mxGeometry x="547.5" y="380.5" width="40" height="20" as="geometry" />
        </mxCell>
        <mxCell id="h7xeCGE2rYM3C8ICNuwG-84" value="DBL" style="text;html=1;strokeColor=none;fillColor=none;align=center;verticalAlign=middle;whiteSpace=wrap;rounded=0;fontFamily=Times New Roman;fontSize=24;" parent="1" vertex="1">
          <mxGeometry x="935" y="272" width="40" height="20" as="geometry" />
        </mxCell>
        <mxCell id="h7xeCGE2rYM3C8ICNuwG-85" value="DBL" style="text;html=1;strokeColor=none;fillColor=none;align=center;verticalAlign=middle;whiteSpace=wrap;rounded=0;fontFamily=Times New Roman;fontSize=24;" parent="1" vertex="1">
          <mxGeometry x="935" y="158" width="40" height="20" as="geometry" />
        </mxCell>
        <mxCell id="h7xeCGE2rYM3C8ICNuwG-87" value="DBL" style="text;html=1;strokeColor=none;fillColor=none;align=center;verticalAlign=middle;whiteSpace=wrap;rounded=0;fontFamily=Times New Roman;fontSize=24;" parent="1" vertex="1">
          <mxGeometry x="940" y="381.5" width="40" height="20" as="geometry" />
        </mxCell>
        <mxCell id="h7xeCGE2rYM3C8ICNuwG-88" value="DBL" style="text;html=1;strokeColor=none;fillColor=none;align=center;verticalAlign=middle;whiteSpace=wrap;rounded=0;fontFamily=Times New Roman;fontSize=24;" parent="1" vertex="1">
          <mxGeometry x="822.5" y="408" width="40" height="20" as="geometry" />
        </mxCell>
        <mxCell id="h7xeCGE2rYM3C8ICNuwG-89" value="DBL" style="text;html=1;strokeColor=none;fillColor=none;align=center;verticalAlign=middle;whiteSpace=wrap;rounded=0;fontFamily=Times New Roman;fontSize=24;" parent="1" vertex="1">
          <mxGeometry x="827" y="298" width="40" height="20" as="geometry" />
        </mxCell>
        <mxCell id="h7xeCGE2rYM3C8ICNuwG-90" value="concat" style="text;html=1;strokeColor=none;fillColor=none;align=center;verticalAlign=middle;whiteSpace=wrap;rounded=0;fontFamily=Times New Roman;fontSize=24;rotation=90;" parent="1" vertex="1">
          <mxGeometry x="701.25" y="400" width="40" height="20" as="geometry" />
        </mxCell>
        <mxCell id="h7xeCGE2rYM3C8ICNuwG-91" value="上采样" style="text;html=1;strokeColor=none;fillColor=none;align=center;verticalAlign=middle;whiteSpace=wrap;rounded=0;fontFamily=Times New Roman;fontSize=24;" parent="1" vertex="1">
          <mxGeometry x="610" y="268" width="52.5" height="20" as="geometry" />
        </mxCell>
        <mxCell id="h7xeCGE2rYM3C8ICNuwG-92" value="上采样" style="text;html=1;strokeColor=none;fillColor=none;align=center;verticalAlign=middle;whiteSpace=wrap;rounded=0;fontFamily=Times New Roman;fontSize=24;" parent="1" vertex="1">
          <mxGeometry x="604.5" y="380.5" width="58" height="20" as="geometry" />
        </mxCell>
        <mxCell id="h7xeCGE2rYM3C8ICNuwG-95" value="concat" style="text;html=1;strokeColor=none;fillColor=none;align=center;verticalAlign=middle;whiteSpace=wrap;rounded=0;fontFamily=Times New Roman;fontSize=24;rotation=90;" parent="1" vertex="1">
          <mxGeometry x="701.25" y="291" width="40" height="20" as="geometry" />
        </mxCell>
        <mxCell id="h7xeCGE2rYM3C8ICNuwG-97" value="conv" style="text;html=1;strokeColor=none;fillColor=none;align=center;verticalAlign=middle;whiteSpace=wrap;rounded=0;fontFamily=Times New Roman;fontSize=24;" parent="1" vertex="1">
          <mxGeometry x="1005" y="158.5" width="40" height="20" as="geometry" />
        </mxCell>
        <mxCell id="h7xeCGE2rYM3C8ICNuwG-98" value="conv" style="text;html=1;strokeColor=none;fillColor=none;align=center;verticalAlign=middle;whiteSpace=wrap;rounded=0;fontFamily=Times New Roman;fontSize=24;" parent="1" vertex="1">
          <mxGeometry x="1005" y="271" width="40" height="20" as="geometry" />
        </mxCell>
        <mxCell id="h7xeCGE2rYM3C8ICNuwG-99" value="conv" style="text;html=1;strokeColor=none;fillColor=none;align=center;verticalAlign=middle;whiteSpace=wrap;rounded=0;fontFamily=Times New Roman;fontSize=24;" parent="1" vertex="1">
          <mxGeometry x="1005" y="381.5" width="40" height="20" as="geometry" />
        </mxCell>
        <mxCell id="7HwRHmx735W2FjeOF3X1-1" value="416*416*3" style="text;html=1;align=center;verticalAlign=middle;resizable=0;points=[];autosize=1;fontSize=24;fontFamily=Times New Roman;" vertex="1" parent="1">
          <mxGeometry x="-39" y="223" width="120" height="30" as="geometry" />
        </mxCell>
      </root>
    </mxGraphModel>
  </diagram>
</mxfile>
